<?xml version="1.0" encoding="UTF-8" standalone="no"?>
<svg xmlns="http://www.w3.org/2000/svg"
viewBox="-20 -20 796.29852 185.82086"
     preserveAspectRatio="none">
  <path
    d="m 241.49432,0.69075903 c 102.49005,-0.007 204.48005,-0.031 306.46991,0.10626 1.85529,0.002 4.42609,1.46548997 5.42987,3.03548997 3.28095,5.1319 5.99054,10.62918 8.94417,16.03037 3.8077,-3.22043 4.2926,-4.1012 13.0182,-2.64511 8.2506,1.37686 1.5647,9.6206 5.3988,14.57379 2.3305,-4.27481 4.5287,-8.17414 6.6006,-12.1395 2.968,-5.68039 5.6463,-11.52609 8.9086,-17.02829 0.7434,-1.25375 3.3642,-1.93703997 5.1307,-1.95565997 14.4971,-0.15307 28.9965,-0.0693 43.4953,-0.0907 36.32983,-0.0536 72.65953,-0.11924 108.98923,-0.19968 2.6634,-0.006 5.3463,0.002 7.9853,-0.30026 3.8348,-0.43955 5.5524,0.96303997 5.5453,4.93370997 -0.024,13.32489 0.1419,26.65009 0.132,39.9751 0,1.39459 -0.6865,2.7887 -1.0789,4.276 4.5965,2.95426 4.8717,4.22177 1.5838,8.68778 -0.5878,0.79837 -1.2703,1.55001 -2.0109,2.20886 -3.2451,2.88736 -6.4797,5.74939 -3.5891,10.73007 9.4967,1.34628 9.4651,1.71378 9.4032,11.92938 -0.04,6.56455 0.8801,13.15595 1.693,19.695131 0.364,2.92771 -0.6709,4.48188 -3.2555,5.24542 -6.1844,1.82709 -12.3883,3.58835 -18.1979,5.26468 -0.2627,3.04468 -0.4996,5.79169 -0.7834,9.08234 3.0364,0 6.5376,-0.24731 9.9891,0.0608 4.6248,0.41278 7.4317,3.40427 7.2001,7.31387 -0.2658,4.48764 -3.0729,6.91428 -7.2481,6.46668 -9.6623,-1.03595 -16.5307,6.34637 -25.3116,7.82233 -3.8645,0.64959 -7.6598,1.71109 -12.6327,2.8475 -0.2498,0.52841 -0.7946,2.53339 -2.0023,3.98776 -1.1088,1.33515 -2.9413,2.87677 -4.4381,2.85959 -1.5612,-0.0179 -3.9937,-1.47296 -4.4854,-2.85477 -1.4935,-4.19638 -2.943,-6.18368 -7.8263,-3.66378 -1.1728,0.60519 -4.3534,-2.68049 -7.3059,-4.63764 -0.1932,0.93289 -0.7663,2.57514 -0.8413,4.23984 -0.6467,14.32242 1.3654,13.11743 -13.4593,13.11719 -199.48295,-0.003 -398.96574,0.031 -598.448485,-0.0887 -11.09708,-0.007 -22.20276,-1.16174 -33.2796,-2.08127 -1.6225,-0.13467 -4.05652,-1.7145 -4.37662,-3.04415 -0.29813,-1.23832 1.56253,-3.17685 2.77441,-4.53876 0.90433,-1.01615 2.28919,-1.60465 3.01349,-2.08649 -3.64374,-2.20404 -7.1174,-4.3052 -10.59106,-6.40637 0.2348,-0.71542 0.46957,-1.43088 0.70437,-2.1463 -10.58813,0.83597 -21.17413,1.70047 -31.76587,2.48797 -2.6521005,0.19718 -5.3599505,0.42786 -7.9675305,0.0814 -1.15277,-0.15319 -2.77529995,-1.5805 -2.98317995,-2.66064 -0.2012,-1.04544 0.86185,-2.76492 1.87066995,-3.50928 1.42733,-1.0531 3.43484,-1.28341 4.98284,-2.2164 4.4336005,-2.67215 8.8194305,-5.43673 13.0634805,-8.39535 0.60928,-0.42481 0.33228,-2.12101 0.47589,-3.31574 -4.75342,-0.3551 -9.22613,-0.7203 -13.7035505,-1.01364 -3.41449,-0.22369 -5.18274,-1.93274 -5.14514,-5.40305 0.002,-0.16665 0.006,-0.33346 4.9e-4,-0.49993 -0.39182,-12.22739 -0.38538,-12.20533 11.6446205,-15.763101 2.70465,-0.79986 5.34607,-1.81338 7.23865,-3.27337 2.03982,-2.93714 4.07968,-5.87424 6.38073,-9.18747 -0.88012,0 -2.64981,0.16778 -4.37698,-0.0319 -4.92416,-0.56937 -9.87906,-1.05051 -14.7279705,-2.03095 -3.29739,-0.66675 -4.72628,-2.8453 -4.35229,-6.63199 0.7525,-7.61856 0.99704,-15.29132 1.31296,-22.94741 0.17813,-4.31733 1.55932,-6.91993 6.4096305,-7.84873 5.64368,-1.08075 11.36667,-2.71802 16.48514,-5.26114 4.03244,-2.0036 7.20069,-5.74652 10.75278,-8.71689 -0.26907,-0.49105 -0.53815,-0.98211 -0.80722,-1.47317 -4.05023,0 -8.10321,-0.0946 -12.15006,0.0226 -5.7835,0.16748 -11.57601,0.79505 -17.3343805,0.5405 -1.51623,-0.0671 -4.14798,-2.63586 -4.17288,-4.09168 -0.13653,-7.98007 0.2077,-15.98486 0.84177,-23.94494 0.10324,-1.29581 2.30423,-3.00989 3.84756,-3.45928997 1.9866005,-0.57846 4.2879105,-0.044 6.4536805,-0.0439 75.32638,0.006 150.652765,0.005 226.479175,0.005 z"
    fill="none"
    stroke="#1e1e1e"
    stroke-width="3"
    vector-effect="non-scaling-stroke"/>

</svg>
